<svg class="svg-icon" style="width: 1em;height: 1em;vertical-align: middle;fill: currentColor;overflow: hidden;" viewBox="0 0 1024 1024" version="1.1" xmlns="http://www.w3.org/2000/svg"><path d="M512 1024c-58.08-89.344-100.672-137.728-127.68-145.184C190.112 825.248 48 652.672 48 448 48 200.576 255.744 0 512 0S976 200.576 976 448c0 203.168-140.064 374.72-332.032 429.632-27.904 7.968-71.872 56.768-131.968 146.368zM317.024 559.936l15.424 86.72H400L317.024 269.472H240.16L157.184 646.656h65.408l15.424-86.72h79.008z m-12.256-69.952H250.272l5.728-31.904c6.752-37.6 14.016-81.696 20.448-121.216h1.44c7.136 38.592 13.984 83.712 21.152 121.216l5.76 31.904z m137.184-145.504v302.176h64.288v-302.176h72.544V269.44h-208.992v75.008h72.16z m171.296-75.008h0.064v377.28h57.472v-129.28c0-37.6-5.024-93.792-8.288-130.848h1.44l21.568 90.24 36.256 137.888h35.2l35.84-137.984 22.304-90.24h1.44c-3.264 37.056-8.288 93.344-8.288 130.88v129.28h58.56V269.44H797.12l-40.896 162.752c-5.024 21.792-9.28 45.632-14.72 68.928h-1.824c-5.024-23.296-9.312-47.136-14.72-68.928L682.56 269.44h-69.312z"  /></svg>