<svg class="svg-icon" style="width: 1em; height: 1em;vertical-align: middle;fill: currentColor;overflow: hidden;" viewBox="0 0 1024 1024" version="1.1" xmlns="http://www.w3.org/2000/svg"><path d="M908.303978 374.670262 510.97874 182.41354 113.64941 374.670262l55.555294 24.820292-0.029676 0c-1.992377 0-5.056156 299.307853-4.257977 346.889545 0.355087 20.974707 16.249079 30.928407 31.928177 30.928407 16.122189 0 32.016181-10.495028 30.618345-30.374798l1.541099-320.995805 61.234643 27.840068L290.239314 732.107023l0 11.168364 7.618515 8.214079c7.933693 8.503675 114.728998 87.12736 226.236628 85.99149 107.588367-1.083681 216.832444-78.982866 221.448578-82.287121l11.803837-8.532327 0-14.56574L757.346871 443.027116l-1.194198 0.358157L908.303978 374.670262 908.303978 374.670262zM199.024869 748.526995c-0.554632 0.159636-1.311879 0.285502-2.179642 0.285502-1.735527 0-2.888793-0.512676-3.190669-0.754177 0.045025 0-0.228197-0.668219-0.239454-2.179642-0.754177-44.488237 1.352811-246.144026 3.047406-317.90235l4.057409 0-1.535983 318.79979-0.028653 1.083681L199.024869 748.526995 199.024869 748.526995zM240.779855 400.005276l-40.048111-18.212804 0 0.594541-19.576871-8.744151 329.824891-159.586648L841.071737 373.786125 511.019673 522.835789l-208.704322-94.848205 0.399089 0-23.342638-10.438747L240.779855 400.005276 240.779855 400.005276zM728.850863 732.107023c0 0-105.267509 75.890434-205.070562 76.889181C418.949744 810.06249 319.41889 732.865293 318.706669 732.107023L318.706669 466.722794l192.272072 87.400582 217.872123-98.40931L728.850863 732.107023 728.850863 732.107023zM728.850863 732.107023"  /></svg>